<svg width="1040" height="200" viewBox="0 0 1040 200" fill="none" xmlns="http://www.w3.org/2000/svg">
<g clip-path="url(#clip0_2_4)">
<rect width="200" height="200" fill="#787C7E"/>
<path d="M125.777 44.7148L118.16 58.7773L102.34 50.3789L109.664 36.4141L125.777 44.7148ZM103.316 53.5039L95.8945 67.6641L80.0742 59.4609L87.3008 45.3008L103.316 53.5039ZM171.676 133.387H78.5117C66.0117 133.387 56.0508 131.206 48.6289 126.844C39.319 121.375 34.6641 112.814 34.6641 101.16C34.6641 95.1055 36.0312 88.9206 38.7656 82.6055C39.7422 80.3268 42.0859 75.9974 45.7969 69.6172L48.7266 71.4727C47.2943 74.4674 45.8945 77.4622 44.5273 80.457C42.6393 85.0794 41.6953 89.2135 41.6953 92.8594C41.6953 100.542 45.7318 106.499 53.8047 110.73C61.0312 114.507 70.1784 116.395 81.2461 116.395H163.961V113.758C163.961 106.466 163.082 100.542 161.324 95.9844C159.566 91.362 156.572 87.4232 152.34 84.168L159.859 68.25C162.724 71.8307 164.449 74.0768 165.035 74.9883C169.462 82.2799 171.676 92.8919 171.676 106.824V133.387Z" fill="white"/>
</g>
<rect width="200" height="200" transform="translate(210)" fill="#C9B458"/>
<path d="M322.008 128.484C322.008 133.693 321.064 138.738 319.176 143.621C318.199 146.225 316.083 150.359 312.828 156.023L311.07 155.047C311.266 153.159 311.428 150.978 311.559 148.504C311.754 146.03 311.852 144.37 311.852 143.523C311.852 136.753 311.298 127.312 310.191 115.203C309.15 103.029 307.88 90.3333 306.383 77.1172C305.471 69.1094 304.462 60.9388 303.355 52.6055C304.658 49.7409 306.122 46.6484 307.75 43.3281C309.443 40.0078 311.038 36.8828 312.535 33.9531C313.577 41.375 314.879 51.5312 316.441 64.4219C318.069 77.3125 319.339 88.9336 320.25 99.2852C321.422 112.176 322.008 121.909 322.008 128.484Z" fill="white"/>
<g clip-path="url(#clip1_2_4)">
<rect width="200" height="200" transform="translate(420)" fill="#C9B458"/>
<path d="M553.578 101.387H541.957C531.15 101.387 521.71 102.396 513.637 104.414C503.415 106.953 498.305 110.599 498.305 115.352C498.305 119.648 499.021 124.238 500.453 129.121C501.951 134.004 503.448 138.952 504.945 143.965C506.508 148.978 507.289 153.568 507.289 157.734C507.289 160.208 507.094 162.454 506.703 164.473C506.378 166.491 505.759 169.128 504.848 172.383C503.155 166.979 501.495 161.576 499.867 156.172C496.742 145.885 494.431 138.105 492.934 132.832C490.59 124.499 489.418 119.486 489.418 117.793C489.418 109.46 491.143 103.079 494.594 98.6523C498.109 94.1602 503.48 90.8398 510.707 88.6914C516.436 86.9987 525.062 85.5664 536.586 84.3945C532.484 80.2279 529.945 77.7539 528.969 76.9727C525.648 74.3685 522.296 73.0664 518.91 73.0664C516.762 73.0664 514.711 73.7174 512.758 75.0195C511.195 76.0612 509.307 77.8516 507.094 80.3906L502.602 77.5586C504.555 72.6758 506.768 68.7695 509.242 65.8398C513.344 61.0221 518.194 58.6133 523.793 58.6133C527.829 58.6133 531.866 60.1107 535.902 63.1055C539.223 65.5794 542.608 69.0299 546.059 73.457C547.751 75.6055 550.258 79.2513 553.578 84.3945V101.387Z" fill="white"/>
</g>
<rect width="200" height="200" transform="translate(630)" fill="#787C7E"/>
<path d="M780.27 141.277C780.27 151.694 777.828 159.962 772.945 166.082C768.583 171.486 762.171 175.359 753.707 177.703C746.546 179.656 737.464 180.633 726.461 180.633C713.896 180.633 704.163 178.322 697.262 173.699C689.71 168.621 685.934 161.036 685.934 150.945C685.934 145.346 686.747 139.52 688.375 133.465C689.742 128.322 691.826 122.69 694.625 116.57C696.643 112.143 699.378 106.805 702.828 100.555L705.953 102.41C703.544 106.772 701.526 110.678 699.898 114.129C697.75 118.751 696.155 122.885 695.113 126.531C693.876 130.958 693.258 135.255 693.258 139.422C693.258 147.43 696.155 153.484 701.949 157.586C707.809 161.688 715.914 163.738 726.266 163.738C737.268 163.738 747.457 161.85 756.832 158.074C767.118 153.908 772.262 148.927 772.262 143.133C772.262 136.818 771.253 126.108 769.234 111.004C767.672 99.4154 765.751 86.4596 763.473 72.1367L760.25 53.1914L755.758 50.8477C755.758 42.1237 757.548 34.181 761.129 27.0195H762.789C763.049 29.4935 763.505 31.349 764.156 32.5859C764.807 33.7578 765.882 34.6367 767.379 35.2227C769.397 36.069 771.611 37.0781 774.02 38.25C775.777 39.0964 777.307 39.8451 778.609 40.4961C778.609 45.0534 778.447 48.3737 778.121 50.457C777.796 52.5404 777.145 55.4701 776.168 59.2461L770.602 57.4883C770.732 58.9206 771.676 65.4635 773.434 77.1172C775.452 90.724 776.949 101.759 777.926 110.223C779.488 123.764 780.27 134.116 780.27 141.277Z" fill="white"/>
<rect width="200" height="200" transform="translate(840)" fill="#6AAA64"/>
<path d="M963.473 93.7188C963.473 100.815 961.096 106.316 956.344 110.223C951.591 114.129 944.918 116.082 936.324 116.082C932.353 116.082 927.958 115.529 923.141 114.422C920.211 113.771 915.914 112.566 910.25 110.809L911.91 108.758C913.473 108.758 915.361 108.855 917.574 109.051C922.717 109.507 925.908 109.734 927.145 109.734C934.632 109.734 941.044 108.66 946.383 106.512C951.786 104.298 954.488 101.694 954.488 98.6992C954.488 97.332 953.935 96.1602 952.828 95.1836C951.721 94.207 950.419 93.7188 948.922 93.7188C947.229 93.7188 945.927 93.7513 945.016 93.8164L938.18 94.3047C936.552 94.3047 935.152 93.8815 933.98 93.0352C932.874 92.1888 932.32 90.7565 932.32 88.7383C932.32 83.2695 935.152 76.7266 940.816 69.1094C946.546 61.4922 952.535 56.6419 958.785 54.5586L956.93 67.3516C952.438 68.5885 948.987 69.9232 946.578 71.3555C942.672 73.6341 940.719 76.3685 940.719 79.5586C940.719 80.6654 941.24 81.4792 942.281 82C943.323 82.4557 944.527 82.6836 945.895 82.6836C947.066 82.6836 948.108 82.6185 949.02 82.4883L954.293 81.8047C957.678 81.8047 960.055 82.6836 961.422 84.4414C962.789 86.1992 963.473 89.2917 963.473 93.7188ZM999.215 153.387H927.145C911.585 153.387 900.517 151.531 893.941 147.82C886.91 143.849 883.395 137.078 883.395 127.508C883.395 121.779 884.924 115.268 887.984 107.977C888.831 105.958 890.621 102.215 893.355 96.7461L896.676 98.6992C894.462 103.777 892.997 107.684 892.281 110.418C891.63 113.152 891.305 115.757 891.305 118.23C891.305 125.327 895.048 130.307 902.535 133.172C908.134 135.32 916.337 136.395 927.145 136.395H989.352L977.145 53.582L972.066 51.1406C972.066 46.6484 972.457 42.4492 973.238 38.543C974.02 34.5716 975.191 30.7305 976.754 27.0195L978.219 28.0938C978.219 31.8698 980.562 34.7018 985.25 36.5898L995.797 40.4961C995.797 43.4909 995.406 46.8438 994.625 50.5547C993.909 54.2656 993.16 57.1628 992.379 59.2461L987.691 57.6836L999.215 134.246V153.387Z" fill="white"/>
<defs>
<clipPath id="clip0_2_4">
<rect width="200" height="200" fill="white"/>
</clipPath>
<clipPath id="clip1_2_4">
<rect width="200" height="200" fill="white" transform="translate(420)"/>
</clipPath>
</defs>
</svg>
